<svg xmlns="http://www.w3.org/2000/svg" width="55.18" height="54.98" viewBox="0 0 55.18 54.98">
  <defs>
    <style>
      .cls-1 {
        fill: #fff;
      }
    </style>
  </defs>
  <title>AppsIcon</title>
  <g id="Layer_2" data-name="Layer 2">
    <g id="Layer_1-2" data-name="Layer 1">
      <g>
        <path class="cls-1" d="M0,27.58C0,26,0,24.36,0,22.75s.63-2.14,2.08-2.15q4.79,0,9.57,0c1.47,0,2.12.64,2.13,2.11q0,4.79,0,9.57c0,1.46-.68,2.08-2.15,2.09q-4.79,0-9.57,0c-1.42,0-2-.64-2.06-2.06C0,30.74,0,29.16,0,27.58Zm10.27-3.45H3.5v6.73h6.77Z"/>
        <path class="cls-1" d="M55.17,27.5c0,1.61,0,3.22,0,4.84a1.79,1.79,0,0,1-2,2q-4.89,0-9.77,0a1.8,1.8,0,0,1-2-2q-.05-4.88,0-9.77a1.82,1.82,0,0,1,2.06-2q4.84,0,9.67,0c1.44,0,2,.63,2.05,2.06C55.19,24.28,55.17,25.89,55.17,27.5ZM44.93,24.13v6.7h6.76v-6.7Z"/>
        <path class="cls-1" d="M34.48,27.48c0,1.58,0,3.16,0,4.74s-.63,2.16-2.16,2.16q-4.74,0-9.47,0c-1.47,0-2.12-.62-2.14-2.1q0-4.83,0-9.67a1.77,1.77,0,0,1,2-2q4.88,0,9.77,0c1.34,0,2,.68,2,2C34.49,24.26,34.48,25.87,34.48,27.48ZM31,24.15H24.22v6.7H31Z"/>
        <path class="cls-1" d="M6.93,0c1.61,0,3.22,0,4.83,0,1.37,0,2,.61,2,2q0,4.93,0,9.87a1.68,1.68,0,0,1-1.85,1.86q-5.08,0-10.16,0A1.64,1.64,0,0,1,0,11.89q0-5,0-10.06A1.64,1.64,0,0,1,1.8,0C3.51,0,5.22,0,6.93,0ZM3.5,3.45v6.77h6.76V3.45Z"/>
        <path class="cls-1" d="M48.35,0H53c1.58,0,2.18.57,2.18,2.11q0,4.79,0,9.57c0,1.44-.61,2-2.06,2q-4.84,0-9.67,0c-1.42,0-2-.62-2.06-2.06q0-4.79,0-9.57C41.38.63,42,0,43.51,0S46.73,0,48.35,0Zm3.36,3.48H44.9v6.75h6.81Z"/>
        <path class="cls-1" d="M7,41.26c1.58,0,3.16,0,4.74,0s2.09.59,2.11,2q0,4.88,0,9.77a1.74,1.74,0,0,1-2,1.94Q6.89,55,2,55A1.72,1.72,0,0,1,0,53q0-4.88,0-9.77c0-1.36.64-2,2-2C3.66,41.24,5.31,41.26,7,41.26ZM3.49,44.7v6.77h6.76V44.7Z"/>
        <path class="cls-1" d="M48.31,41.26c1.58,0,3.16,0,4.74,0s2.12.58,2.12,2.07q0,4.79,0,9.57c0,1.45-.6,2.06-2,2.07q-4.88,0-9.77,0c-1.31,0-2-.6-2-1.92q-.07-4.93,0-9.87c0-1.3.69-1.9,2-1.92C45,41.24,46.66,41.26,48.31,41.26ZM51.69,51.5V44.74H44.9V51.5Z"/>
        <path class="cls-1" d="M27.54,13.73c-1.61,0-3.22,0-4.83,0-1.37,0-2-.62-2-2q0-4.83,0-9.67c0-1.44.63-2,2-2q4.83,0,9.67,0c1.43,0,2,.6,2.05,2q0,4.83,0,9.67c0,1.39-.6,2-2,2C30.83,13.75,29.18,13.73,27.54,13.73ZM24.22,3.44v6.8H31V3.44Z"/>
        <path class="cls-1" d="M27.61,41.26c1.61,0,3.22,0,4.83,0,1.41,0,2,.58,2,2q0,4.88,0,9.77c0,1.38-.62,2-2,2q-4.88,0-9.77,0c-1.35,0-2-.64-2-2q0-4.83,0-9.67c0-1.43.63-2,2.07-2C24.39,41.25,26,41.26,27.61,41.26ZM24.2,44.71v6.76H31V44.71Z"/>
      </g>
    </g>
  </g>
</svg>
