<svg xmlns="http://www.w3.org/2000/svg" width="39.55" height="31.34" viewBox="0 0 39.55 31.34">
  <defs>
    <style>
      .cls-1 {
        fill: #fff;
      }
    </style>
  </defs>
  <title>HomeIcon</title>
  <g id="Layer_2" data-name="Layer 2">
    <g id="Layer_1-2" data-name="Layer 1">
      <g>
        <path class="cls-1" d="M23.7,31.34V21.82H15.87v9.53H7.64c-1.41,0-2-.62-2-2,0-3.57,0-7.13,0-10.7A1.23,1.23,0,0,1,6,17.77C10.52,14,15.09,10.18,19.72,6.34l2.6,2.13q5.57,4.58,11.14,9.15a1.15,1.15,0,0,1,.49,1c0,3.59,0,7.18,0,10.77a1.72,1.72,0,0,1-2,2Z"/>
        <path class="cls-1" d="M19.72,4.2l-5.6,4.65L3,18.07c-.67.56-.85.54-1.43-.1L.47,16.68c-.65-.73-.63-1,.12-1.64l9-7.52L17.5,1A3.14,3.14,0,0,1,22,1l5.54,4.61c0-.79,0-1.44,0-2.09,0-.8,0-1.6,0-2.39s.27-1,.9-1q2.29,0,4.59,0c.63,0,.87.31.87,1,0,3,0,6,0,9a1.34,1.34,0,0,0,.57,1.16c1.51,1.23,3,2.49,4.5,3.74.71.6.74.9.14,1.59L37.93,18c-.53.59-.78.6-1.39.09L20,4.46Z"/>
      </g>
    </g>
  </g>
</svg>
