<svg xmlns="http://www.w3.org/2000/svg" width="54.19" height="53.29" viewBox="0 0 54.19 53.29">
  <defs>
    <style>
      .cls-1 {
        fill: #fff;
      }
    </style>
  </defs>
  <title>NewsIcon</title>
  <g id="Layer_2" data-name="Layer 2">
    <g id="Layer_1-2" data-name="Layer 1">
      <path class="cls-1" d="M5.19,14.15v1.25q0,12.27,0,24.53a12.39,12.39,0,0,0,.06,1.31,1.32,1.32,0,0,0,1.43,1.27,1.35,1.35,0,0,0,1.47-1.36c0-.37,0-.74,0-1.11q0-17.23,0-34.47c0-2.1.56-3.92,2.54-4.92A6.29,6.29,0,0,1,13.43,0Q31.23,0,49,0c3.23,0,5.16,2,5.16,5.2q0,21.44,0,42.88c0,3.2-1.94,5.14-5.2,5.17-3.75,0-7.5,0-11.25,0q-16,0-32,0a7.38,7.38,0,0,1-2.77-.42A4.58,4.58,0,0,1,0,48.28Q0,41,0,33.68c0-4.73,0-9.46,0-14.19a8.52,8.52,0,0,1,.18-1.91C.76,15.15,2.52,13.92,5.19,14.15Zm16.08,3.61c1.35,0,2.7,0,4.05,0s1.63-.43,1.63-1.67q0-3.9,0-7.8c0-1.18-.46-1.66-1.66-1.67q-4,0-7.9,0c-1.18,0-1.6.44-1.61,1.6q0,4,0,8c0,1.12.41,1.52,1.53,1.53C18.64,17.77,20,17.75,21.27,17.75Zm-5.16,8.41h30.1V23.32H16.11Zm0,16.35h30.1V39.68H16.12Zm30.12-11H16.12v2.82H46.24ZM34.42,15.12V18h11.8v-2.9ZM46.25,7H34.41V9.85H46.25Z"/>
    </g>
  </g>
</svg>
