<svg xmlns="http://www.w3.org/2000/svg" width="56.58" height="56.65" viewBox="0 0 56.58 56.65">
  <defs>
    <style>
      .cls-1 {
        fill: #fff;
      }
    </style>
  </defs>
  <title>SettingsIcon</title>
  <g id="Layer_2" data-name="Layer 2">
    <g id="Layer_1-2" data-name="Layer 1">
      <path class="cls-1" d="M46.83,34c-.47,1.05-.93,2-1.31,3a.92.92,0,0,0,.24.76c1.47,1.52,3,3,4.46,4.51s1.48,3,0,4.5c-1.25,1.26-2.51,2.52-3.77,3.77a2.75,2.75,0,0,1-4.28,0c-1.49-1.47-3-2.95-4.4-4.46a1,1,0,0,0-1.36-.27,10.67,10.67,0,0,1-1.92.79.74.74,0,0,0-.58.84c0,2,0,4,0,6s-1.06,3.16-3.19,3.17c-1.8,0-3.61,0-5.41,0a2.73,2.73,0,0,1-2.91-2.9c0-2.09,0-4.17,0-6.26a.73.73,0,0,0-.57-.84,16.13,16.13,0,0,1-2.2-.94.81.81,0,0,0-1.13.18c-1.47,1.52-3,3-4.46,4.5s-3,1.58-4.61,0L5.72,46.66a2.77,2.77,0,0,1,0-4.28q2.35-2.4,4.75-4.76a.72.72,0,0,0,.17-1,14.29,14.29,0,0,1-.85-2.07A.72.72,0,0,0,8.95,34C7,34,5.08,34,3.15,34A2.81,2.81,0,0,1,0,30.83C0,29,0,27.27,0,25.49a2.78,2.78,0,0,1,3.07-3.06c2,0,3.92,0,5.88,0a.71.71,0,0,0,.82-.59,16.76,16.76,0,0,1,.89-2.14.68.68,0,0,0-.16-.93Q8.07,16.4,5.69,14a2.76,2.76,0,0,1-.06-4.18C7,8.4,8.34,7,9.73,5.69a2.71,2.71,0,0,1,4.06.05c1.58,1.55,3.15,3.12,4.69,4.71a.89.89,0,0,0,1.26.2,16,16,0,0,1,2.13-.9A.69.69,0,0,0,22.39,9c0-1.93,0-3.87,0-5.8C22.4,1,23.42,0,25.57,0c1.75,0,3.5,0,5.26,0,2,0,3.07,1.06,3.08,3.11s0,3.87,0,5.8a.77.77,0,0,0,.63.88,14.3,14.3,0,0,1,2.06.86.67.67,0,0,0,.93-.16C39,9,40.49,7.49,42,6s3-1.6,4.61,0c1.24,1.24,2.48,2.48,3.71,3.72a2.79,2.79,0,0,1,0,4.34c-1.48,1.5-3,3-4.49,4.48a.78.78,0,0,0-.21,1.11,16.91,16.91,0,0,1,1,2.27.69.69,0,0,0,.78.54c2.06,0,4.12,0,6.18,0a2.78,2.78,0,0,1,3.07,3.07q0,2.71,0,5.41A2.78,2.78,0,0,1,53.5,34C51.26,34,49,34,46.83,34ZM28,19.66a8.53,8.53,0,1,0,8.49,8.58A8.51,8.51,0,0,0,28,19.66Z"/>
    </g>
  </g>
</svg>
