<svg xmlns="http://www.w3.org/2000/svg" width="45.55" height="53.71" viewBox="0 0 45.55 53.71">
  <defs>
    <style>
      .cls-1 {
        fill: #fff;
      }
    </style>
  </defs>
  <title>TrainIcon</title>
  <g id="Layer_2" data-name="Layer 2">
    <g id="Layer_1-2" data-name="Layer 1">
      <path class="cls-1" d="M0,53.69l3.37-3.75c1.66-1.85,3.29-3.73,5-5.54.71-.75.46-1.58.46-2.39,0-.12-.34-.25-.55-.35a17.81,17.81,0,0,1-2.21-1,4.25,4.25,0,0,1-2-3.76q0-13.29,0-26.58A4.51,4.51,0,0,1,6.38,6.42a6.81,6.81,0,0,1,3.79-1.1c1.3,0,2.61,0,3.91,0a1.17,1.17,0,0,0,.83-.57c.46-1,.83-2,1.24-3A2.48,2.48,0,0,1,18.61,0Q22.8,0,27,0a2.48,2.48,0,0,1,2.46,1.67c.4,1,.82,2,1.17,3a.87.87,0,0,0,1,.68c1.3,0,2.61,0,3.91,0A6.72,6.72,0,0,1,39.87,6.9a4.54,4.54,0,0,1,1.68,3.67c0,8.62,0,17.23,0,25.85a4.89,4.89,0,0,1-3.7,5.09c-.39.13-1,.37-1.05.6a2.53,2.53,0,0,0,.38,2.23c2.57,2.79,5.08,5.63,7.61,8.45.22.24.42.5.77.9-1.73,0-3.29,0-4.84,0a.78.78,0,0,1-.51-.33,2.55,2.55,0,0,0-2.38-.94q-15.24,0-30.49,0a1.8,1.8,0,0,0-1.66.68,1.51,1.51,0,0,1-1.41.62C2.92,53.66,1.59,53.69,0,53.69ZM22.8,23.3H36.71c1.43,0,2-.62,2-2.06q0-4.27,0-8.55c0-1.43-.59-2.05-2-2.05q-13.91,0-27.83,0c-1.45,0-2,.62-2,2.06q0,4.18,0,8.37c0,1.67.56,2.23,2.23,2.23Zm-13.86,26H36.66c-.92-1-1.72-1.9-2.56-2.75a1.15,1.15,0,0,0-.75-.2q-10.55,0-21.1,0a1.25,1.25,0,0,0-.82.26C10.61,47.45,9.84,48.33,8.94,49.31ZM7.62,35.21a3.47,3.47,0,0,0,3.49,3.54,3.48,3.48,0,0,0,3.57-3.56,3.43,3.43,0,0,0-3.58-3.53A3.43,3.43,0,0,0,7.62,35.21Zm30.35,0a3.53,3.53,0,1,0-7.06-.06,3.53,3.53,0,1,0,7.06.06ZM22.89,7.33c-2.85,0-5.7,0-8.55,0-.28,0-.8.32-.79.45A1.77,1.77,0,0,0,14,8.93a2,2,0,0,0,1.13.18H30.44a3.75,3.75,0,0,0,.9-.06,1,1,0,0,0,.77-1.15c-.07-.61-.51-.57-.95-.57ZM15,43.48H30.57V41.85H15Zm9.82-39.9a2.18,2.18,0,0,0-2-2.06,2.18,2.18,0,0,0-2,2.1,2,2,0,0,0,4,0Z"/>
    </g>
  </g>
</svg>
