<svg id="Layer_1" data-name="Layer 1" xmlns="http://www.w3.org/2000/svg" width="32" height="32" viewBox="0 0 32 32">
  <defs>
    <style>
      .cls-1 {
        fill: #ffffff;
      }
    </style>
  </defs>
  <title>Weather_Icons</title>
  <g>
    <path class="cls-1" d="M5,17.75a.5.5,0,0,0,.5-.5A4.69,4.69,0,0,1,10,12.5a4.46,4.46,0,0,1,1.85.41.5.5,0,0,0,.7-.4,4.48,4.48,0,0,1,8.86-.4.51.51,0,0,0,.5.4H22a4.69,4.69,0,0,1,4.5,4.75.5.5,0,0,0,1,0,5.73,5.73,0,0,0-5.21-5.74,5.48,5.48,0,0,0-10.63.26A5.37,5.37,0,0,0,10,11.5a5.7,5.7,0,0,0-5.5,5.75A.5.5,0,0,0,5,17.75Z"/>
    <path class="cls-1" d="M5,20H27a.5.5,0,0,0,0-1H5a.5.5,0,0,0,0,1Z"/>
    <path class="cls-1" d="M5,22H27a.5.5,0,0,0,0-1H5a.5.5,0,0,0,0,1Z"/>
    <path class="cls-1" d="M5,24H27a.5.5,0,0,0,0-1H5a.5.5,0,0,0,0,1Z"/>
  </g>
</svg>
