<svg id="Layer_1" data-name="Layer 1" xmlns="http://www.w3.org/2000/svg" width="32" height="32" viewBox="0 0 32 32">
  <defs>
    <style>
      .cls-1 {
        fill: #ffffff;
      }
    </style>
  </defs>
  <title>fog</title>
  <g>
    <path class="cls-1" d="M21.29,20c.39,0,.71-.22.71-.5s-.32-.5-.71-.5H15.62c-.39,0-.71.22-.71.5s.32.5.71.5Z"/>
    <path class="cls-1" d="M13,20a.5.5,0,0,0,0-1H9.45a.5.5,0,0,0,0,1Z"/>
    <path class="cls-1" d="M11.71,21c-.39,0-.71.22-.71.5s.32.5.71.5h5.67c.39,0,.71-.22.71-.5s-.32-.5-.71-.5Z"/>
    <path class="cls-1" d="M20,21a.5.5,0,0,0,0,1h3.59a.5.5,0,0,0,0-1Z"/>
    <path class="cls-1" d="M22.29,9.46a5.49,5.49,0,0,0-10.63.25A5.53,5.53,0,0,0,10,9.45a5.73,5.73,0,0,0-5.5,5.8,5.93,5.93,0,0,0,1.44,3.86A1.47,1.47,0,0,1,6.5,19h.77A5,5,0,0,1,5.5,15.25a4.78,4.78,0,0,1,4.5-4.8,4.47,4.47,0,0,1,1.85.4.5.5,0,0,0,.7-.4,4.49,4.49,0,0,1,8.86-.39.52.52,0,0,0,.5.4H22a4.78,4.78,0,0,1,4.5,4.8A5,5,0,0,1,24.73,19h.77a1.47,1.47,0,0,1,.56.11,5.93,5.93,0,0,0,1.44-3.86A5.76,5.76,0,0,0,22.29,9.46Z"/>
  </g>
</svg>
