<svg id="Layer_1" data-name="Layer 1" xmlns="http://www.w3.org/2000/svg" width="32" height="32" viewBox="0 0 32 32">
  <defs>
    <style>
      .cls-1 {
        fill: #ffffff;
      }
    </style>
  </defs>
  <title>Weather_Icons</title>
  <path class="cls-1" d="M16,5.08c-4,0-11.5.63-11.5,3s7.52,3,11.5,3,11.5-.63,11.5-3S20,5.08,16,5.08Zm0,5c-6.79,0-10.5-1.33-10.5-2s3.71-2,10.5-2,10.5,1.33,10.5,2S22.79,10.11,16,10.11Z"/>
  <path class="cls-1" d="M25.3,12.62a.53.53,0,0,0-.52.47c0,.45-2.81,1.62-8.78,1.62S7.27,13.54,7.22,13.1a.5.5,0,1,0-1,0c0,2.07,6.4,2.62,9.78,2.62s9.78-.55,9.78-2.62A.48.48,0,0,0,25.3,12.62Z"/>
  <path class="cls-1" d="M21.17,18.1a.5.5,0,0,0-1-.09c-.27.24-1.73.66-4.17.66s-3.9-.42-4.17-.66a.5.5,0,0,0-1,.09c0,1.49,4.3,1.57,5.16,1.57S21.17,19.59,21.17,18.1Z"/>
  <path class="cls-1" d="M16,26.92a.5.5,0,0,0,.43-.24l2.62-4.37a.5.5,0,1,0-.86-.51L16,25.45,13.81,21.8a.5.5,0,0,0-.86.51l2.62,4.36A.5.5,0,0,0,16,26.92Z"/>
</svg>
