<svg id="Layer_1" data-name="Layer 1" xmlns="http://www.w3.org/2000/svg" width="32" height="32" viewBox="0 0 32 32">
  <defs>
    <style>
      .cls-1 {
        fill: #ffffff;
      }
    </style>
  </defs>
  <title>Weather_Icons</title>
  <path class="cls-1" d="M22.29,7.93a5.48,5.48,0,0,0-10.63.26A5.38,5.38,0,0,0,10,7.92c-2.93,0-5.5,2.82-5.5,6s2.57,6,5.5,6H22c2.93,0,5.5-2.82,5.5-6A6,6,0,0,0,22.29,7.93ZM22,19H10c-2.58,0-4.5-2.66-4.5-5s1.92-5,4.5-5a4.45,4.45,0,0,1,1.85.41.5.5,0,0,0,.7-.4,4.48,4.48,0,0,1,8.86-.4.5.5,0,0,0,.49.4H22c2.58,0,4.5,2.66,4.5,5S24.58,19,22,19Z"/>
  <g>
    <path class="cls-1" d="M16.33,28A.5.5,0,0,0,17,28l3.17-3.15a.5.5,0,0,0-.35-.85H18.57l2.1-2.13a.5.5,0,1,0-.71-.7l-2.94,3a.5.5,0,0,0,.36.85h1.26l-2.31,2.29A.5.5,0,0,0,16.33,28Z"/>
    <path class="cls-1" d="M11.33,28A.5.5,0,0,0,12,28l3.17-3.15a.5.5,0,0,0-.35-.85H13.57l2.1-2.13a.5.5,0,1,0-.71-.7l-2.94,3a.5.5,0,0,0,.36.85h1.26l-2.31,2.29A.5.5,0,0,0,11.33,28Z"/>
  </g>
</svg>
