<svg id="Layer_1" data-name="Layer 1" xmlns="http://www.w3.org/2000/svg" width="32" height="32" viewBox="0 0 32 32">
  <defs>
    <style>
      .cls-1 {
        fill: #ffffff;
      }
    </style>
  </defs>
  <title>Weather_Icons</title>
  <path class="cls-1" d="M26.32,7a.5.5,0,0,0,0,1,2.37,2.37,0,0,1,2.1,2.5A2.46,2.46,0,0,1,26.19,13H14a.5.5,0,0,0,0,1H26.19a3.45,3.45,0,0,0,3.23-3.49A3.38,3.38,0,0,0,26.32,7Z"/>
  <path class="cls-1" d="M25.32,21a.5.5,0,0,0,0,1,3.3,3.3,0,0,0,3.1-3.46A3.56,3.56,0,0,0,25.19,15H8a.5.5,0,0,0,0,1H25.19a2.56,2.56,0,0,1,2.23,2.58A2.34,2.34,0,0,1,25.32,21Z"/>
  <path class="cls-1" d="M11.64,18.16a.5.5,0,0,0-.71,0L8,21.15a.5.5,0,0,0,.36.85H9.61L7.31,24.29A.5.5,0,0,0,8,25l3.17-3.14a.5.5,0,0,0-.35-.86H9.54l2.1-2.13A.5.5,0,0,0,11.64,18.16Z"/>
  <path class="cls-1" d="M16.22,17.55,13.73,20a.5.5,0,1,0,.71.71l2.5-2.5a.5.5,0,0,0-.71-.71Z"/>
  <path class="cls-1" d="M6.22,17.55,3.73,20a.5.5,0,1,0,.71.71l2.5-2.5a.5.5,0,0,0-.71-.71Z"/>
</svg>
