<svg id="Layer_1" data-name="Layer 1" xmlns="http://www.w3.org/2000/svg" width="32" height="32" viewBox="0 0 32 32">
  <defs>
    <style>
      .cls-1 {
        fill: #ffffff;
      }
    </style>
  </defs>
  <title>Weather_Icons</title>
  <path class="cls-1" d="M22.29,7.43a5.48,5.48,0,0,0-10.63.26A5.38,5.38,0,0,0,10,7.42a5.73,5.73,0,0,0-5.5,5.79A5.73,5.73,0,0,0,10,19H22a5.81,5.81,0,0,0,.29-11.57ZM22,18H10a4.8,4.8,0,0,1,0-9.58,4.45,4.45,0,0,1,1.85.41.5.5,0,0,0,.7-.4A4.48,4.48,0,0,1,21.41,8a.5.5,0,0,0,.49.4H22A4.8,4.8,0,0,1,22,18Z"/>
  <path class="cls-1" d="M10.49,28.13a.5.5,0,0,0,.71,0l3.17-3.27A.5.5,0,0,0,14,24H12.8l2-1.86a.5.5,0,1,0-.68-.73l-2.94,2.73a.5.5,0,0,0,.34.87h1.3l-2.35,2.42A.5.5,0,0,0,10.49,28.13Z"/>
  <path class="cls-1" d="M18.61,24.27l2.5-2.5a.5.5,0,0,0-.71-.71l-2.5,2.5a.5.5,0,1,0,.71.71Z"/>
  <path class="cls-1" d="M16.1,26.77l1-1a.5.5,0,0,0-.71-.71l-1,1a.5.5,0,1,0,.71.71Z"/>
  <path class="cls-1" d="M7.61,24.27l2.5-2.5a.5.5,0,0,0-.71-.71l-2.5,2.5a.5.5,0,1,0,.71.71Z"/>
  <path class="cls-1" d="M5.1,26.77l1-1a.5.5,0,0,0-.71-.71l-1,1a.5.5,0,1,0,.71.71Z"/>
</svg>
