<svg id="Layer_1" data-name="Layer 1" xmlns="http://www.w3.org/2000/svg" width="32" height="32" viewBox="0 0 32 32">
  <defs>
    <style>
      .cls-1 {
        fill: #ffffff;
      }
    </style>
  </defs>
  <title>rain_snow</title>
  <path class="cls-1" d="M11.17,22.05a.5.5,0,0,0-1,0v4a.5.5,0,1,0,1,0Zm3,0a.5.5,0,0,0-1,0v2a.5.5,0,0,0,1,0Zm3-.25c0-.14-.22-.25-.5-.25s-.5.11-.5.25v1c0,.14.22.25.5.25s.5-.11.5-.25ZM27.5,15.25a5.76,5.76,0,0,0-5.21-5.79,5.48,5.48,0,0,0-10.63.26A5.37,5.37,0,0,0,10,9.45a5.81,5.81,0,0,0,0,11.61H22A5.73,5.73,0,0,0,27.5,15.25Zm-22,0a4.78,4.78,0,0,1,4.5-4.8,4.46,4.46,0,0,1,1.85.41.5.5,0,0,0,.7-.4,4.48,4.48,0,0,1,8.86-.4.51.51,0,0,0,.5.4H22a4.81,4.81,0,0,1,0,9.61H10A4.78,4.78,0,0,1,5.5,15.25Z"/>
  <circle class="cls-1" cx="8.83" cy="25" r="0.5"/>
  <circle class="cls-1" cx="6.83" cy="27" r="0.5"/>
  <circle class="cls-1" cx="17.83" cy="25" r="0.5"/>
  <circle class="cls-1" cx="20.83" cy="23" r="0.5"/>
  <circle class="cls-1" cx="14.83" cy="27" r="0.5"/>
  <circle class="cls-1" cx="12.83" cy="29" r="0.5"/>
  <circle class="cls-1" cx="8.83" cy="29" r="0.5"/>
  <circle class="cls-1" cx="19.83" cy="27" r="0.5"/>
  <circle class="cls-1" cx="22.83" cy="25" r="0.5"/>
  <circle class="cls-1" cx="16.83" cy="29" r="0.5"/>
</svg>
