<svg id="Layer_1" data-name="Layer 1" xmlns="http://www.w3.org/2000/svg" width="32" height="32" viewBox="0 0 32 32">
  <defs>
    <style>
      .cls-1 {
        fill: #ffffff;
      }
    </style>
  </defs>
  <title>Weather_Icons</title>
  <g>
    <path class="cls-1" d="M19.5,7.5A.5.5,0,0,0,20,7V5a.5.5,0,0,0-1,0V7A.5.5,0,0,0,19.5,7.5Z"/>
    <path class="cls-1" d="M30,15H28a.5.5,0,0,0,0,1h2a.5.5,0,0,0,0-1Z"/>
    <path class="cls-1" d="M19.25,28a5.61,5.61,0,0,0,4.29-9.09,5.81,5.81,0,1,0-9.35-6.2A5.47,5.47,0,0,0,8.91,17a5.38,5.38,0,0,0-1.66-.27A5.65,5.65,0,0,0,7.25,28Zm.44-18.25a4.81,4.81,0,0,1,3.17,8.43,5.39,5.39,0,0,0-3.32-1.46,5.52,5.52,0,0,0-4.31-3.91A4.84,4.84,0,0,1,19.69,9.75ZM2.75,22.35a4.64,4.64,0,0,1,4.5-4.65,4.45,4.45,0,0,1,1.85.41.5.5,0,0,0,.7-.4,4.49,4.49,0,0,1,8.86-.4.5.5,0,0,0,.49.4h.1a4.65,4.65,0,0,1,0,9.29h-12A4.64,4.64,0,0,1,2.75,22.35Z"/>
    <path class="cls-1" d="M13.39,9.77a.5.5,0,1,0,.71-.71L12.68,7.65a.5.5,0,0,0-.71.71Z"/>
    <path class="cls-1" d="M25.76,9.91a.5.5,0,0,0,.35-.15l1.41-1.41a.5.5,0,0,0-.71-.71L25.41,9.06a.5.5,0,0,0,.35.85Z"/>
    <path class="cls-1" d="M26,20.36l1.41,1.41a.5.5,0,1,0,.71-.71l-1.41-1.41a.5.5,0,0,0-.71.71Z"/>
  </g>
</svg>
