<svg id="Layer_1" data-name="Layer 1" xmlns="http://www.w3.org/2000/svg" width="32" height="32" viewBox="0 0 32 32">
  <defs>
    <style>
      .cls-1 {
        fill: #ffffff;
      }
    </style>
  </defs>
  <title>Weather_Icons</title>
  <path class="cls-1" d="M23.62,14.74a5.51,5.51,0,0,0-5.29-4,5.41,5.41,0,0,0-2.33.54A6.46,6.46,0,0,0,11,6a.49.49,0,0,0-.46.13.5.5,0,0,0-.13.46,5.54,5.54,0,0,1-6.63,6.63.49.49,0,0,0-.46.13.5.5,0,0,0-.13.46,6.34,6.34,0,0,0,3.14,4.22,5.58,5.58,0,0,0-.5,2.3A5.64,5.64,0,0,0,11.33,26h12a5.64,5.64,0,0,0,.29-11.26Zm-18,1.58a5.51,5.51,0,0,1-1.27-2A6.54,6.54,0,0,0,11.52,7.2a5.49,5.49,0,0,1,3.55,4.61A5.48,5.48,0,0,0,13,15a5.37,5.37,0,0,0-1.66-.27,5.51,5.51,0,0,0-4.51,2.46A5.56,5.56,0,0,1,5.65,16.32ZM23.33,25h-12a4.64,4.64,0,0,1,0-9.27,4.45,4.45,0,0,1,1.85.41.5.5,0,0,0,.7-.4,4.48,4.48,0,0,1,8.86-.4.5.5,0,0,0,.49.4h.1a4.64,4.64,0,0,1,0,9.27Z"/>
</svg>
