<svg id="Layer_1" data-name="Layer 1" xmlns="http://www.w3.org/2000/svg" width="32" height="32" viewBox="0 0 32 32">
  <defs>
    <style>
      .cls-1 {
        fill: #ffffff;
      }
    </style>
  </defs>
  <title>Weather_Icons</title>
  <path class="cls-1" d="M8.5,25.5h12c2.93,0,5.5-2.8,5.5-6a6.07,6.07,0,0,0-.23-1.66,4.22,4.22,0,0,0-.7-8.32,4.23,4.23,0,0,0-8.16.18,5.4,5.4,0,0,0-6.75,4.06A5.36,5.36,0,0,0,8.5,13.5c-2.93,0-5.5,2.8-5.5,6S5.57,25.5,8.5,25.5ZM21,7.5a3.26,3.26,0,0,1,3.18,2.61.6.6,0,0,0,.57.39,3.23,3.23,0,0,1,.66,6.4,5.69,5.69,0,0,0-4.62-3.39,5.5,5.5,0,0,0-2.94-3.46A3.22,3.22,0,0,1,21,7.5Zm-12.5,7a4.45,4.45,0,0,1,1.85.41.5.5,0,0,0,.7-.4,4.49,4.49,0,0,1,8.86-.4.51.51,0,0,0,.5.4h.09c2.58,0,4.5,2.64,4.5,5s-1.92,5-4.5,5H8.5c-2.58,0-4.5-2.64-4.5-5S5.92,14.5,8.5,14.5Z"/>
</svg>
