<svg id="Layer_1" data-name="Layer 1" xmlns="http://www.w3.org/2000/svg" width="32" height="32" viewBox="0 0 32 32">
  <defs>
    <style>
      .cls-1 {
        fill: #ffffff;
      }
    </style>
  </defs>
  <title>Weather_Icons</title>
  <path class="cls-1" d="M27.5,18a5.76,5.76,0,0,0-5.21-5.79,5.48,5.48,0,0,0-10.63.26A5.37,5.37,0,0,0,10,12.2,5.81,5.81,0,0,0,10,23.8H22A5.73,5.73,0,0,0,27.5,18Zm-22,0A4.78,4.78,0,0,1,10,13.2a4.46,4.46,0,0,1,1.85.41.5.5,0,0,0,.7-.4,4.48,4.48,0,0,1,8.86-.4.51.51,0,0,0,.5.4H22a4.81,4.81,0,0,1,0,9.61H10A4.78,4.78,0,0,1,5.5,18Z"/>
</svg>
