<svg id="Layer_1" data-name="Layer 1" xmlns="http://www.w3.org/2000/svg" width="32" height="32" viewBox="0 0 32 32">
  <defs>
    <style>
      .cls-1 {
        fill: #ffffff;
      }
    </style>
  </defs>
  <title>Weather_Icons</title>
  <path class="cls-1" d="M10,21H22c3.15,0,5.5-3.23,5.5-6.12S25.29,9,22.29,8.76A5.48,5.48,0,0,0,11.67,9,5.37,5.37,0,0,0,10,8.75c-3.15,0-5.5,3.23-5.5,6.13S6.85,21,10,21ZM10,9.75a4.46,4.46,0,0,1,1.85.41.5.5,0,0,0,.7-.4,4.48,4.48,0,0,1,8.86-.4.52.52,0,0,0,.5.4H22c2.53,0,4.5,2.75,4.5,5.13S24.53,20,22,20H10c-2.53,0-4.5-2.75-4.5-5.12S7.47,9.75,10,9.75Z"/>
  <path class="cls-1" d="M11,23v4a.5.5,0,0,0,1,0V23a.5.5,0,0,0-1,0Z"/>
  <path class="cls-1" d="M17,23v4a.5.5,0,0,0,1,0V23a.5.5,0,0,0-1,0Z"/>
  <path class="cls-1" d="M14,23v2a.5.5,0,0,0,1,0V23a.5.5,0,0,0-1,0Z"/>
  <path class="cls-1" d="M20,23v2a.5.5,0,0,0,1,0V23a.5.5,0,0,0-1,0Z"/>
</svg>
