<svg id="Layer_1" data-name="Layer 1" xmlns="http://www.w3.org/2000/svg" width="32" height="32" viewBox="0 0 32 32">
  <defs>
    <style>
      .cls-1 {
        fill: #ffffff;
      }
    </style>
  </defs>
  <title>cold_rain</title>
  <g>
    <path class="cls-1" d="M22,26.05a.5.5,0,1,0,1,0v-4a.5.5,0,0,0-1,0Z"/>
    <path class="cls-1" d="M19,24.05a.5.5,0,1,0,1,0v-2a.5.5,0,0,0-1,0Z"/>
    <path class="cls-1" d="M16,22.8c0,.14.22.25.5.25s.5-.11.5-.25v-1c0-.14-.22-.25-.5-.25s-.5.11-.5.25Z"/>
    <path class="cls-1" d="M27.5,15.25a5.76,5.76,0,0,0-5.21-5.79,5.48,5.48,0,0,0-10.63.26A5.37,5.37,0,0,0,10,9.45a5.81,5.81,0,0,0,0,11.61H22A5.73,5.73,0,0,0,27.5,15.25Zm-22,0a4.78,4.78,0,0,1,4.5-4.8,4.46,4.46,0,0,1,1.85.41.5.5,0,0,0,.7-.4,4.48,4.48,0,0,1,8.86-.4.51.51,0,0,0,.5.4H22a4.81,4.81,0,0,1,0,9.61H10A4.78,4.78,0,0,1,5.5,15.25Z"/>
    <g>
      <path d="M12.48,27.15c0,.18,0,.36,0,.53a.44.44,0,0,1,0,.11.26.26,0,0,1-.26.21.24.24,0,0,1-.25-.21,3.48,3.48,0,0,1,0-.42c0-.07,0-.14,0-.22l-.21.17a.34.34,0,0,1-.3.09.26.26,0,0,1-.17-.37,2.28,2.28,0,0,1,.26-.33c.1-.11.22-.22.32-.33a.32.32,0,0,0-.07-.52l-.12-.07a.31.31,0,0,0-.48.2c-.05.18-.09.37-.15.56a1.42,1.42,0,0,1-.13.29.26.26,0,0,1-.47-.13c0-.13,0-.27,0-.41l-.3.17a2,2,0,0,1-.31.12.26.26,0,0,1-.25-.43,3.4,3.4,0,0,1,.33-.25l.22-.13c-.12-.05-.24-.1-.35-.16a.24.24,0,0,1-.11-.33A.29.29,0,0,1,10,25.1l.72.19a.39.39,0,0,0,.38-.1.67.67,0,0,0,0-.58.38.38,0,0,0-.36-.1l-.61.16a1,1,0,0,1-.23,0,.26.26,0,0,1-.25-.2.25.25,0,0,1,.12-.29l.36-.17-.29-.17a1.81,1.81,0,0,1-.27-.22.24.24,0,0,1,0-.33.28.28,0,0,1,.33-.09l.53.29c0-.13,0-.25,0-.37a.24.24,0,0,1,.19-.26.23.23,0,0,1,.31.14,4.54,4.54,0,0,1,.16.46,3,3,0,0,1,.08.32.37.37,0,0,0,.27.28.64.64,0,0,0,.5-.29.39.39,0,0,0-.11-.37c-.13-.12-.26-.25-.38-.39a1.36,1.36,0,0,1-.18-.25.25.25,0,0,1,.07-.32.26.26,0,0,1,.34,0l.27.23c0-.05,0-.09,0-.13s0-.36,0-.54a.24.24,0,0,1,.25-.2.24.24,0,0,1,.25.2,3,3,0,0,1,0,.4c0,.08,0,.17,0,.26.11-.08.21-.16.31-.23a.26.26,0,0,1,.36.35A1.41,1.41,0,0,1,13,23l-.4.4a.38.38,0,0,0-.09.37.13.13,0,0,0,0,.08,2.77,2.77,0,0,0,.35.2c.12.05.31-.1.36-.25l.19-.68a.72.72,0,0,1,.07-.14.24.24,0,0,1,.3-.13.24.24,0,0,1,.2.24c0,.13,0,.26,0,.39l.5-.27a.28.28,0,0,1,.36.08.24.24,0,0,1,0,.35,2.65,2.65,0,0,1-.31.23l-.24.14c.12.05.23.09.34.14a.26.26,0,0,1,.15.31.24.24,0,0,1-.28.19c-.26,0-.51-.1-.76-.17a.43.43,0,0,0-.38.06.56.56,0,0,0,0,.62.42.42,0,0,0,.39.07c.22-.07.45-.12.67-.18a.29.29,0,0,1,.35.18.25.25,0,0,1-.14.34,3.28,3.28,0,0,1-.33.14l.29.17a2,2,0,0,1,.26.21.26.26,0,0,1-.25.43,3.44,3.44,0,0,1-.39-.17L14,26.29c0,.14,0,.28,0,.41a.24.24,0,0,1-.18.23.23.23,0,0,1-.3-.11c-.09-.21-.16-.44-.23-.66,0-.06,0-.12,0-.18a.31.31,0,0,0-.48-.2l-.12.07a.32.32,0,0,0-.07.52l.49.51a.65.65,0,0,1,.1.16.26.26,0,0,1-.05.29.24.24,0,0,1-.29.05C12.72,27.32,12.61,27.24,12.48,27.15Zm-.18-4.6h0c0-.15,0-.29,0-.43s0-.06-.07-.09l-.08.09a.15.15,0,0,0,0,.07c0,.2,0,.41,0,.61s0,.14-.08.18-.14,0-.2-.06-.19-.19-.29-.27a.13.13,0,0,0-.11,0s0,.07,0,.1a1,1,0,0,0,.13.18l.38.38a.51.51,0,0,1-.11.86l-.1.06a.44.44,0,0,1-.55,0,.53.53,0,0,1-.22-.3c0-.11-.06-.22-.09-.33s-.08-.27-.13-.4-.06,0-.1-.07-.05.07,0,.1,0,.25.07.38,0,.15,0,.21-.14,0-.21,0l-.5-.29c-.06,0-.14-.1-.2,0s0,.13.09.16l.49.3c.07,0,.15.08.13.18s-.09.12-.17.14l-.31.1c-.05,0-.14,0-.1.12s.1,0,.15,0a.49.49,0,0,0,.15,0c.21-.05.42-.12.64-.16a.49.49,0,0,1,.57.49q0,.13,0,.27a.35.35,0,0,1-.17.3.6.6,0,0,1-.56.09c-.21-.07-.43-.12-.64-.17-.06,0-.12,0-.14.06a.14.14,0,0,0,.07.1l.36.12c.07,0,.15.06.14.14a.25.25,0,0,1-.1.16c-.14.09-.29.17-.43.26a.9.9,0,0,0-.16.13.07.07,0,0,0,.07.11L10,26.3l.45-.25a.18.18,0,0,1,.16,0,.21.21,0,0,1,.06.16,1.75,1.75,0,0,1-.06.23,1.37,1.37,0,0,0,0,.23.1.1,0,0,0,.05.08s.06,0,.07,0a.92.92,0,0,0,.09-.19c.06-.2.11-.41.17-.61a.5.5,0,0,1,.74-.29,1.22,1.22,0,0,1,.22.13.49.49,0,0,1,.17.22.57.57,0,0,1-.15.58c-.13.12-.25.25-.37.37a.65.65,0,0,0-.12.14.56.56,0,0,0,0,.15c.05,0,.11,0,.15,0s.17-.17.27-.24a.24.24,0,0,1,.19,0s.07.11.08.16,0,.4,0,.6,0,.16.08.16.08-.1.09-.16a3.11,3.11,0,0,0,0-.32,2.36,2.36,0,0,1,0-.3.21.21,0,0,1,.09-.15.21.21,0,0,1,.17,0c.1.08.19.18.3.26s.09,0,.13,0a.38.38,0,0,0,0-.13.77.77,0,0,0-.12-.16c-.14-.14-.27-.28-.42-.42s-.2-.62,0-.75l.32-.18a.35.35,0,0,1,.33,0,.6.6,0,0,1,.36.43c.05.22.12.44.2.66,0,0,.07.06.11.09s0-.09,0-.13,0-.24-.08-.36,0-.15,0-.2a.17.17,0,0,1,.2,0l.42.24.2.08a.1.1,0,0,0,.09,0,.1.1,0,0,0,0-.09.79.79,0,0,0-.16-.13l-.41-.24c-.07,0-.14-.08-.13-.18s.09-.12.17-.15l.36-.13s.05-.07,0-.09a.17.17,0,0,0-.1-.06.21.21,0,0,0-.09,0c-.24.06-.48.14-.72.19A.51.51,0,0,1,13,25c0-.09,0-.18,0-.27a.38.38,0,0,1,.19-.33.66.66,0,0,1,.61-.05c.2.06.4.1.6.14,0,0,.08,0,.12,0s0-.09-.07-.1l-.37-.12c-.07,0-.14,0-.15-.13s0-.13.11-.17l.41-.24a1.09,1.09,0,0,0,.18-.14s0-.08,0-.1a.14.14,0,0,0-.11,0,.47.47,0,0,0-.13.07l-.47.27c-.06,0-.14.06-.18,0a.27.27,0,0,1,0-.18c0-.11.06-.21.07-.31s0-.16,0-.19-.11.08-.13.14c-.07.22-.13.44-.18.66a.57.57,0,0,1-.44.41.82.82,0,0,1-.7-.42.56.56,0,0,1,.14-.56l.39-.39a.85.85,0,0,0,.13-.16.38.38,0,0,0,0-.12s-.1,0-.13,0-.2.18-.3.27a.21.21,0,0,1-.17,0,.21.21,0,0,1-.09-.15A1.65,1.65,0,0,1,12.29,22.54Z"/>
      <path d="M12.85,24.93c.07.27-.08.42-.31.53-.4.21-.3.22-.7,0s-.3-.1-.3-.52c0-.06,0-.12,0-.18a.37.37,0,0,1,.2-.34l.27-.15a.36.36,0,0,1,.37,0l.26.15a.38.38,0,0,1,.21.37C12.84,24.83,12.85,24.88,12.85,24.93Zm-1.11,0c0,.29,0,.27.2.41a.39.39,0,0,0,.5,0,.38.38,0,0,0,.21-.37.42.42,0,0,0-.25-.44.37.37,0,0,0-.42,0C11.81,24.6,11.68,24.7,11.74,24.89Z"/>
    </g>
  </g>
</svg>
