<svg id="Layer_1" data-name="Layer 1" xmlns="http://www.w3.org/2000/svg" width="32" height="32" viewBox="0 0 32 32">
  <defs>
    <style>
      .cls-1 {
        fill: #ffffff;
      }
    </style>
  </defs>
  <title>Weather_Icons</title>
  <path class="cls-1" d="M28.13,14.25a5.73,5.73,0,0,0-5.21-5.74,5.48,5.48,0,0,0-10.63.26,5.38,5.38,0,0,0-1.66-.27,5.76,5.76,0,0,0,0,11.5h12A5.7,5.7,0,0,0,28.13,14.25Zm-22,0a4.69,4.69,0,0,1,4.5-4.75,4.45,4.45,0,0,1,1.85.41.5.5,0,0,0,.7-.4A4.48,4.48,0,0,1,22,9.11a.48.48,0,0,0,.5.4h.09a4.76,4.76,0,0,1,0,9.5h-12A4.69,4.69,0,0,1,6.13,14.25Z"/>
  <path class="cls-1" d="M9.73,21.65a.5.5,0,0,0-.71,0l-2.5,2.5a.5.5,0,1,0,.71.71l2.5-2.5A.5.5,0,0,0,9.73,21.65Z"/>
  <path class="cls-1" d="M13.73,21.65a.5.5,0,0,0-.71,0l-2.5,2.5a.5.5,0,1,0,.71.71l2.5-2.5A.5.5,0,0,0,13.73,21.65Z"/>
  <path class="cls-1" d="M17.73,21.65a.5.5,0,0,0-.71,0l-2.5,2.5a.5.5,0,1,0,.71.71l2.5-2.5A.5.5,0,0,0,17.73,21.65Z"/>
  <path class="cls-1" d="M21,21.65l-2.5,2.5a.5.5,0,1,0,.71.71l2.5-2.5a.5.5,0,0,0-.71-.71Z"/>
  <path class="cls-1" d="M17,25.65l-1,1a.5.5,0,1,0,.71.71l1-1a.5.5,0,0,0-.71-.71Z"/>
  <path class="cls-1" d="M13,25.65l-1,1a.5.5,0,1,0,.71.71l1-1a.5.5,0,0,0-.71-.71Z"/>
  <path class="cls-1" d="M9,25.65l-1,1a.5.5,0,1,0,.71.71l1-1A.5.5,0,1,0,9,25.65Z"/>
  <path class="cls-1" d="M5,25.65l-1,1a.5.5,0,1,0,.71.71l1-1A.5.5,0,1,0,5,25.65Z"/>
</svg>
