<svg id="Layer_1" data-name="Layer 1" xmlns="http://www.w3.org/2000/svg" width="32" height="32" viewBox="0 0 32 32">
  <defs>
    <style>
      .cls-1 {
        fill: #ffffff;
      }
    </style>
  </defs>
  <title>Weather_Icons</title>
  <path class="cls-1" d="M7.26,18a.5.5,0,0,0,.5-.5,7.23,7.23,0,0,1,14.46,0,.5.5,0,1,0,1,0,8.23,8.23,0,0,0-16.46,0A.5.5,0,0,0,7.26,18Z"/>
  <path class="cls-1" d="M14.5,18.5a.5.5,0,0,0-.5.5v5.8A3.24,3.24,0,0,0,17.25,28a3.76,3.76,0,0,0,3.63-3.4.5.5,0,0,0-1,0A2.77,2.77,0,0,1,17.25,27,2.24,2.24,0,0,1,15,24.8V19A.5.5,0,0,0,14.5,18.5Z"/>
  <path class="cls-1" d="M8.6,7.32l2.5-2.5a.5.5,0,1,0-.71-.71l-2.5,2.5a.5.5,0,1,0,.71.71Z"/>
  <path class="cls-1" d="M12.6,7.32l2.5-2.5a.5.5,0,0,0-.71-.71l-2.5,2.5a.5.5,0,1,0,.71.71Z"/>
  <path class="cls-1" d="M16.6,7.32l2.5-2.5a.5.5,0,1,0-.71-.71l-2.5,2.5a.5.5,0,1,0,.71.71Z"/>
  <path class="cls-1" d="M20.6,7.32l2.5-2.5a.5.5,0,1,0-.71-.71l-2.5,2.5a.5.5,0,1,0,.71.71Z"/>
</svg>
