<svg id="Layer_1" data-name="Layer 1" xmlns="http://www.w3.org/2000/svg" width="32" height="32" viewBox="0 0 32 32">
  <defs>
    <style>
      .cls-1 {
        fill: #231f20;
      }
    </style>
  </defs>
  <title>Weather_Icons</title>
  <path class="cls-1" d="M17.67,14.59a.5.5,0,0,0,1,0,8.23,8.23,0,1,0-16.46,0,.5.5,0,0,0,1,0,7.23,7.23,0,1,1,14.46,0Z"/>
  <path class="cls-1" d="M26.41,10.92a.5.5,0,0,0,0,1,2.37,2.37,0,0,1,2.18,2.42c0,1.2-1,2.65-2.23,2.65H14a.5.5,0,0,0,0,1H26.36c1.85,0,3.23-1.93,3.23-3.65A3.35,3.35,0,0,0,26.41,10.92Z"/>
  <path class="cls-1" d="M25.36,19H8a.5.5,0,0,0,0,1H25.36a2.39,2.39,0,0,1,2.23,2.42A2.49,2.49,0,0,1,25.41,25a.5.5,0,0,0,0,1,3.48,3.48,0,0,0,3.18-3.54A3.41,3.41,0,0,0,25.36,19Z"/>
</svg>
