<svg id="Layer_1" data-name="Layer 1" xmlns="http://www.w3.org/2000/svg" width="32" height="32" viewBox="0 0 32 32">
  <defs>
    <style>
      .cls-1 {
        fill: #231f20;
      }
    </style>
  </defs>
  <title>Weather_Icons</title>
  <path class="cls-1" d="M12,21a.5.5,0,0,0-1,0v4a.5.5,0,0,0,1,0Z"/>
  <path class="cls-1" d="M18,21a.5.5,0,0,0-1,0v4a.5.5,0,0,0,1,0Z"/>
  <path class="cls-1" d="M15,21a.5.5,0,0,0-1,0v2a.5.5,0,0,0,1,0Z"/>
  <path class="cls-1" d="M21,21a.5.5,0,0,0-1,0v2a.5.5,0,0,0,1,0Z"/>
  <path class="cls-1" d="M27.33,13.2A5.76,5.76,0,0,0,22.13,7.4a5.48,5.48,0,0,0-10.63.26,5.37,5.37,0,0,0-1.66-.27,5.73,5.73,0,0,0-5.5,5.8A5.73,5.73,0,0,0,9.83,19h12A5.73,5.73,0,0,0,27.33,13.2Zm-22,0a4.78,4.78,0,0,1,4.5-4.8,4.46,4.46,0,0,1,1.85.41.5.5,0,0,0,.7-.4A4.48,4.48,0,0,1,21.24,8a.51.51,0,0,0,.5.4h.08a4.81,4.81,0,0,1,0,9.61h-12A4.78,4.78,0,0,1,5.33,13.2Z"/>
  <circle class="cls-1" cx="14.43" cy="25.61" r="0.5"/>
  <circle class="cls-1" cx="20.43" cy="25.61" r="0.5"/>
  <circle class="cls-1" cx="17.43" cy="27.61" r="0.5"/>
  <circle class="cls-1" cx="11.43" cy="27.61" r="0.5"/>
</svg>
