<svg id="Layer_1" data-name="Layer 1" xmlns="http://www.w3.org/2000/svg" width="32" height="32" viewBox="0 0 32 32">
  <defs>
    <style>
      .cls-1 {
        fill: #231f20;
      }
    </style>
  </defs>
  <title>Weather_Icons</title>
  <path class="cls-1" d="M22.38,15.87a6.2,6.2,0,0,0-3.56-5.64l.2-.15a.5.5,0,0,0,0-.84,8,8,0,1,0,0,13.52.5.5,0,0,0,0-.84c-.15-.09-.28-.2-.42-.31A6.25,6.25,0,0,0,22.38,15.87Zm-4.65,5a7,7,0,0,1,.2-9.9,5.23,5.23,0,0,1-.2,9.9Z"/>
  <path class="cls-1" d="M27,16H24a.5.5,0,0,0,0,1h3a.5.5,0,0,0,0-1Z"/>
  <path class="cls-1" d="M22.57,10.26,24.74,8.1A.5.5,0,1,0,24,7.39L21.86,9.56a.5.5,0,1,0,.71.71Z"/>
  <path class="cls-1" d="M22.57,21.48a.5.5,0,1,0-.71.71L24,24.36a.5.5,0,1,0,.71-.71Z"/>
</svg>
