<svg id="Layer_1" data-name="Layer 1" xmlns="http://www.w3.org/2000/svg" width="32" height="32" viewBox="0 0 32 32">
  <defs>
    <style>
      .cls-1 {
        fill: #231f20;
      }
    </style>
  </defs>
  <title>Weather_Icons</title>
  <path class="cls-1" d="M8.5,23h12A5.64,5.64,0,0,0,26,17.38a5.49,5.49,0,0,0-.17-1.3,4.22,4.22,0,0,0-.76-8.3A4.23,4.23,0,0,0,16.91,8,5.4,5.4,0,0,0,10.16,12a5.37,5.37,0,0,0-1.66-.27A5.63,5.63,0,0,0,8.5,23ZM21,5.75a3.26,3.26,0,0,1,3.18,2.61.56.56,0,0,0,.57.39,3.23,3.23,0,0,1,.76,6.38,5.59,5.59,0,0,0-4.72-3.37A5.5,5.5,0,0,0,17.86,8.3,3.22,3.22,0,0,1,21,5.75Zm-12.5,7a4.46,4.46,0,0,1,1.85.41.5.5,0,0,0,.7-.4,4.48,4.48,0,0,1,8.86-.4.5.5,0,0,0,.5.4h.09a4.63,4.63,0,0,1,0,9.25H8.5a4.63,4.63,0,0,1,0-9.25Z"/>
  <path class="cls-1" d="M8,25H20a.5.5,0,0,0,0-1H8a.5.5,0,0,0,0,1Z"/>
  <path class="cls-1" d="M8,27H20a.5.5,0,0,0,0-1H8a.5.5,0,0,0,0,1Z"/>
</svg>
