<svg id="Layer_1" data-name="Layer 1" xmlns="http://www.w3.org/2000/svg" width="32" height="32" viewBox="0 0 32 32">
  <defs>
    <style>
      .cls-1 {
        fill: #231f20;
      }
    </style>
  </defs>
  <title>Weather_Icons</title>
  <circle class="cls-1" cx="19" cy="12.38" r="2.12"/>
  <path class="cls-1" d="M16.18,15.22c-.57-.57-1.67-.32-3.35.75a6.11,6.11,0,0,0-8.25,8.25C3.5,25.9,3.25,27,3.82,27.57a1.07,1.07,0,0,0,.79.3,5.23,5.23,0,0,0,2.48-1l.1-.07a6.11,6.11,0,0,0,8.24-8.24C16.34,17.14,16.81,15.85,16.18,15.22ZM10,16.27a5.12,5.12,0,0,1,4.24,2.26A28.14,28.14,0,0,1,11,22.37a28.38,28.38,0,0,1-3.83,3.26A5.11,5.11,0,0,1,10,16.27ZM4.53,26.88c-.05-.1,0-.62.65-1.74a6.16,6.16,0,0,0,1.07,1.07C5.35,26.75,4.72,27,4.53,26.88Zm10.58-5.49A5.12,5.12,0,0,1,10,26.5a5.07,5.07,0,0,1-1.84-.36,31.33,31.33,0,0,0,3.52-3.07,32.85,32.85,0,0,0,3.07-3.54A5.07,5.07,0,0,1,15.11,21.38Zm-.3-3.75a6.16,6.16,0,0,0-1.06-1.07c1.12-.65,1.63-.69,1.71-.65C15.56,16.11,15.35,16.74,14.82,17.63Z"/>
  <path class="cls-1" d="M24.1,6a.5.5,0,0,0-.71,0l-2.5,2.5a.5.5,0,1,0,.71.71l2.5-2.5A.5.5,0,0,0,24.1,6Z"/>
  <path class="cls-1" d="M28.08,4.28,21.9,10.52a.5.5,0,1,0,.71.7L28.79,5a.5.5,0,0,0-.71-.7Z"/>
</svg>
