<svg id="Layer_1" data-name="Layer 1" xmlns="http://www.w3.org/2000/svg" width="32" height="32" viewBox="0 0 32 32">
  <defs>
    <style>
      .cls-1 {
        fill: #231f20;
      }
    </style>
  </defs>
  <title>Weather_Icons</title>
  <path class="cls-1" d="M23,6H21.85A7.78,7.78,0,0,0,14,13.5V17H11a.5.5,0,0,0,0,1h3v9a.5.5,0,0,0,1,0V18h3a.5.5,0,0,0,0-1H15V13.5A6.86,6.86,0,0,1,21.85,7H23a.5.5,0,0,0,0-1Z"/>
  <path class="cls-1" d="M12.15,7.58a3,3,0,1,0-3,3A3,3,0,0,0,12.15,7.58Zm-3,2a2,2,0,1,1,2-2A2,2,0,0,1,9.15,9.58Z"/>
</svg>
