<svg id="Layer_1" data-name="Layer 1" xmlns="http://www.w3.org/2000/svg" width="32" height="32" viewBox="0 0 32 32">
  <defs>
    <style>
      .cls-1 {
        fill: #231f20;
      }
    </style>
  </defs>
  <title>Weather_Icons</title>
  <path class="cls-1" d="M11.81,23.57,6.93,28.45a.5.5,0,1,0,.71.71L29.46,7.33a.5.5,0,0,0-.71-.71L23.1,12.28A8,8,0,0,0,11.81,23.57ZM17.72,11.2A6.94,6.94,0,0,1,22.39,13l-9.87,9.87a6.94,6.94,0,0,1-1.79-4.67A7,7,0,0,1,17.72,11.2Z"/>
  <path class="cls-1" d="M17.5,7.5A.5.5,0,0,0,18,7V3a.5.5,0,0,0-1,0V7A.5.5,0,0,0,17.5,7.5Z"/>
  <path class="cls-1" d="M3,19H7a.5.5,0,0,0,0-1H3a.5.5,0,0,0,0,1Z"/>
  <path class="cls-1" d="M9.76,10.77a.5.5,0,1,0,.71-.71L7.64,7.24a.5.5,0,1,0-.71.71Z"/>
</svg>
