<svg id="Layer_1" data-name="Layer 1" xmlns="http://www.w3.org/2000/svg" width="32" height="32" viewBox="0 0 32 32">
  <defs>
    <style>
      .cls-1 {
        fill: #231f20;
      }
    </style>
  </defs>
  <title>Weather_Icons</title>
  <path class="cls-1" d="M17,3V7a.5.5,0,0,0,1,0V3a.5.5,0,0,0-1,0Z"/>
  <path class="cls-1" d="M7.5,18.5A.5.5,0,0,0,7,18H3a.5.5,0,0,0,0,1H7A.5.5,0,0,0,7.5,18.5Z"/>
  <path class="cls-1" d="M28.76,6.62,23.1,12.28A8,8,0,0,0,11.81,23.57L6.93,28.45a.5.5,0,1,0,.71.71L12.5,24.3A8,8,0,0,0,23.74,13.05l5.72-5.72a.5.5,0,0,0-.71-.71Zm-18,11.57A7,7,0,0,1,22.39,13l-9.87,9.87A6.93,6.93,0,0,1,10.72,18.2Z"/>
  <path class="cls-1" d="M6.93,7.24a.5.5,0,0,0,0,.71l2.83,2.83a.5.5,0,1,0,.71-.71L7.64,7.24A.5.5,0,0,0,6.93,7.24Z"/>
</svg>
