<svg id="Layer_1" data-name="Layer 1" xmlns="http://www.w3.org/2000/svg" width="32" height="32" viewBox="0 0 32 32">
  <defs>
    <style>
      .cls-1 {
        fill: #231f20;
      }
    </style>
  </defs>
  <title>Weather_Icons</title>
  <path class="cls-1" d="M27.49,8a.49.49,0,0,0,0-.1C27.14,5.69,19.89,5.08,16,5.08S4.86,5.69,4.53,7.94a.49.49,0,0,0,0,.1s0,0,0,.06,0,0,0,0a.49.49,0,0,0,0,.1A1.36,1.36,0,0,0,5,9.06L15.57,26.67a.5.5,0,0,0,.86,0L27,9.06a1.36,1.36,0,0,0,.47-.83.49.49,0,0,0,0-.1s0,0,0,0S27.49,8.06,27.49,8ZM16,6.08C22.51,6.08,26.18,7.3,26.47,8l-.29.48c-1,.7-4.52,1.63-10.18,1.63S6.83,9.19,5.82,8.49L5.53,8C5.82,7.3,9.49,6.08,16,6.08Zm0,19.36L6.71,10A33.76,33.76,0,0,0,16,11.11,33.76,33.76,0,0,0,25.29,10Z"/>
</svg>
