<svg id="Layer_1" data-name="Layer 1" xmlns="http://www.w3.org/2000/svg" width="32" height="32" viewBox="0 0 32 32">
  <defs>
    <style>
      .cls-1 {
        fill: #231f20;
      }
    </style>
  </defs>
  <title>Weather_Icons</title>
  <g>
    <path class="cls-1" d="M8.5,16.5A.5.5,0,0,0,9,16a7,7,0,0,1,14,0,.5.5,0,0,0,1,0A8,8,0,0,0,8,16,.5.5,0,0,0,8.5,16.5Z"/>
    <path class="cls-1" d="M21.38,22.92a.5.5,0,1,0-.67-.74,7,7,0,0,1-9.42,0,.5.5,0,0,0-.67.74,8,8,0,0,0,10.76,0Z"/>
    <path class="cls-1" d="M6,19H26a.5.5,0,0,0,0-1H6a.5.5,0,0,0,0,1Z"/>
    <path class="cls-1" d="M23,20H9a.5.5,0,0,0,0,1H23a.5.5,0,0,0,0-1Z"/>
  </g>
</svg>
