<svg id="Layer_1" data-name="Layer 1" xmlns="http://www.w3.org/2000/svg" width="32" height="32" viewBox="0 0 32 32">
  <defs>
    <style>
      .cls-1 {
        fill: #231f20;
      }
    </style>
  </defs>
  <title>Weather_Icons</title>
  <path class="cls-1" d="M16,6A10,10,0,1,0,26,16,10,10,0,0,0,16,6Zm0,19a9,9,0,1,1,9-9A9,9,0,0,1,16,25Z"/>
  <path class="cls-1" d="M19.5,11.66a37.3,37.3,0,0,0-5.08,2.92,37.31,37.31,0,0,0-2.92,5.08.5.5,0,0,0,.67.67,37.2,37.2,0,0,0,5.08-2.92,37.15,37.15,0,0,0,2.92-5.08.5.5,0,0,0-.67-.67Z"/>
</svg>
