<svg id="Layer_1" data-name="Layer 1" xmlns="http://www.w3.org/2000/svg" width="32" height="32" viewBox="0 0 32 32">
  <defs>
    <style>
      .cls-1 {
        fill: #231f20;
      }
    </style>
  </defs>
  <title>Weather_Icons</title>
  <path class="cls-1" d="M28.76,6.62,22,13.4A7.92,7.92,0,0,0,16.11,8a.49.49,0,0,0-.46.13.5.5,0,0,0-.13.46,7,7,0,0,1-8.36,8.36.49.49,0,0,0-.46.13.5.5,0,0,0-.13.46A7.92,7.92,0,0,0,12,23.39L6.93,28.45a.5.5,0,1,0,.71.71l5.63-5.63h0L29.46,7.33a.5.5,0,1,0-.71-.71ZM9.4,20.71A7,7,0,0,1,7.73,18a8,8,0,0,0,8.89-8.89,6.93,6.93,0,0,1,4.53,5.07L12.8,22.58A7,7,0,0,1,9.4,20.71Z"/>
</svg>
