<svg id="Layer_1" data-name="Layer 1" xmlns="http://www.w3.org/2000/svg" width="32" height="32" viewBox="0 0 32 32">
  <defs>
    <style>
      .cls-1 {
        fill: #231f20;
      }
    </style>
  </defs>
  <title>Weather_Icons</title>
  <path class="cls-1" d="M9.5,12.5a.5.5,0,0,0,.5.5H22a.5.5,0,0,0,0-1H10A.5.5,0,0,0,9.5,12.5Z"/>
  <path class="cls-1" d="M29.55,11.78c0-1.72-1.3-3.64-3.16-3.64a.5.5,0,0,0,0,1c1.22,0,2.16,1.42,2.16,2.64A2.22,2.22,0,0,1,26.32,14H12a.5.5,0,0,0,0,1H26.32A3.23,3.23,0,0,0,29.55,11.78Z"/>
  <path class="cls-1" d="M28.55,19.86c0-1.78-1.41-3.86-3.23-3.86H8a.5.5,0,0,0,0,1H25.32c1.18,0,2.23,1.6,2.23,2.86a2.25,2.25,0,0,1-2.16,2.32.5.5,0,0,0,0,1A3.25,3.25,0,0,0,28.55,19.86Z"/>
  <path class="cls-1" d="M4.5,12.5A.5.5,0,0,0,5,13H8a.5.5,0,0,0,0-1H5A.5.5,0,0,0,4.5,12.5Z"/>
  <path class="cls-1" d="M3,17H6a.5.5,0,0,0,0-1H3a.5.5,0,0,0,0,1Z"/>
  <path class="cls-1" d="M7,15h3a.5.5,0,0,0,0-1H7a.5.5,0,0,0,0,1Z"/>
</svg>
