<svg id="Layer_1" data-name="Layer 1" xmlns="http://www.w3.org/2000/svg" width="32" height="32" viewBox="0 0 32 32">
  <defs>
    <style>
      .cls-1 {
        fill: #231f20;
      }
    </style>
  </defs>
  <title>Weather_Icons</title>
  <path class="cls-1" d="M5.82,12.54a.5.5,0,0,0,.93.37,7,7,0,0,1,6.5-4.41.5.5,0,0,0,0-1A8,8,0,0,0,5.82,12.54Z"/>
  <path class="cls-1" d="M4.1,10.19a.5.5,0,0,0,.65-.28,7,7,0,0,1,6.5-4.41.5.5,0,0,0,0-1,8,8,0,0,0-7.43,5A.5.5,0,0,0,4.1,10.19Z"/>
  <path class="cls-1" d="M8.71,27h12c2.93,0,5.5-2.8,5.5-6A6.07,6.07,0,0,0,26,19.34a4.22,4.22,0,0,0-.7-8.32,4.23,4.23,0,0,0-8.16.18,5.4,5.4,0,0,0-6.75,4.06A5.36,5.36,0,0,0,8.71,15c-2.93,0-5.5,2.8-5.5,6S5.78,27,8.71,27ZM21.21,9a3.26,3.26,0,0,1,3.18,2.61A.6.6,0,0,0,25,12a3.23,3.23,0,0,1,.66,6.4A5.69,5.69,0,0,0,21,15a5.5,5.5,0,0,0-2.94-3.46A3.22,3.22,0,0,1,21.21,9ZM8.71,16a4.45,4.45,0,0,1,1.85.41.5.5,0,0,0,.7-.4,4.49,4.49,0,0,1,8.86-.4.51.51,0,0,0,.5.4h.08c2.58,0,4.5,2.64,4.5,5s-1.92,5-4.5,5h-12c-2.58,0-4.5-2.64-4.5-5S6.14,16,8.71,16Z"/>
</svg>
