<svg id="Layer_1" data-name="Layer 1" xmlns="http://www.w3.org/2000/svg" width="32" height="32" viewBox="0 0 32 32">
  <defs>
    <style>
      .cls-1 {
        fill: #231f20;
      }
    </style>
  </defs>
  <title>Weather_Icons</title>
  <path class="cls-1" d="M15.5,17.5A.5.5,0,0,0,15,17H3a.5.5,0,0,0,0,1H15A.5.5,0,0,0,15.5,17.5Z"/>
  <path class="cls-1" d="M23.9,10a.5.5,0,0,0,0,1c2.39,0,4.56,2.38,4.56,5,0,2.36-1.92,5-4.5,5H12a.5.5,0,0,0,0,1H24c2.93,0,5.5-2.8,5.5-6S26.81,10,23.9,10Z"/>
  <path class="cls-1" d="M19.41,20c1.82,0,3.23-2,3.23-3.75a3.34,3.34,0,0,0-3.2-3.37.5.5,0,0,0,0,1,2.32,2.32,0,0,1,2.2,2.38c0,1.24-1,2.75-2.23,2.75H7a.5.5,0,0,0,0,1Z"/>
</svg>
